<svg xmlns="http://www.w3.org/2000/svg" width="40" height="40" viewBox="0 0 40 40">
    <g fill="none" fill-rule="evenodd">
        <g>
            <g>
                <g>
                    <path fill="#272E3A" d="M40 20c0 11.046-8.954 20-20 20S0 31.046 0 20 8.954 0 20 0s20 8.954 20 20" transform="translate(-748 -92) translate(492 92) translate(256)"/>
                    <path fill="#FFF" d="M21.768 23.816c-.715.723-1.611 1.084-2.689 1.084-1.06 0-1.938-.352-2.635-1.057-.698-.706-1.047-1.614-1.047-2.725 0-1.058.358-1.935 1.073-2.631.715-.697 1.594-1.045 2.636-1.045.706 0 1.347.163 1.92.49.574.326 1.02.77 1.338 1.335.318.564.477 1.181.477 1.851 0 1.076-.358 1.975-1.073 2.698zm.835-14.864v6.136c-.618-.617-1.276-1.062-1.974-1.335-.697-.274-1.479-.41-2.344-.41-1.395 0-2.65.343-3.762 1.031s-1.978 1.627-2.596 2.817C11.31 18.38 11 19.699 11 21.145c0 1.48.305 2.817.914 4.007.61 1.19 1.475 2.129 2.596 2.817C15.63 28.656 16.916 29 18.364 29c2.102 0 3.568-.688 4.398-2.063h.053v1.88H27V8l-4.397.952z" transform="translate(-748 -92) translate(492 92) translate(256)"/>
                </g>
            </g>
        </g>
    </g>
</svg>
