<svg xmlns="http://www.w3.org/2000/svg" width="40" height="40" viewBox="0 0 40 40">
    <g fill="none" fill-rule="evenodd">
        <g>
            <g>
                <path fill="#272E3A" d="M40 20c0 11.046-8.954 20-20 20C8.955 40 0 31.046 0 20S8.955 0 20 0c11.046 0 20 8.954 20 20" transform="translate(-492 -92) translate(492 92)"/>
                <path fill="#FFF" d="M21.49 30v-8.667h2.949l.442-3.378h-3.39V15.8c0-.978.275-1.644 1.696-1.644L25 14.154v-3.021c-.313-.041-1.39-.133-2.64-.133-2.615 0-4.404 1.574-4.404 4.465v2.49H15v3.378h2.956V30h3.534" transform="translate(-492 -92) translate(492 92)"/>
            </g>
        </g>
    </g>
</svg>
