<svg xmlns="http://www.w3.org/2000/svg" width="40" height="40" viewBox="0 0 40 40">
    <g fill="none" fill-rule="evenodd">
        <g>
            <g>
                <g>
                    <path fill="#272E3A" d="M40 20c0 11.046-8.954 20-20 20S0 31.046 0 20 8.954 0 20 0s20 8.954 20 20" transform="translate(-620 -92) translate(492 92) translate(128)"/>
                    <path fill="#FFF" d="M20.02 16.065c-2.219 0-4.017 1.742-4.017 3.892s1.798 3.892 4.017 3.892c2.219 0 4.018-1.742 4.018-3.892s-1.8-3.892-4.018-3.892zm7.721 2.394h-1.76c.165.542.256 1.119.256 1.716 0 3.325-2.784 6.022-6.217 6.022-3.434 0-6.217-2.697-6.217-6.022 0-.597.089-1.174.257-1.716h-1.837v8.447c0 .437.358.795.794.795h13.928c.438 0 .796-.358.796-.795v-8.447zm-3.17-6.238c-.495 0-.902.407-.902.902v2.154c0 .496.407.902.902.902h2.259c.496 0 .902-.406.902-.902v-2.154c0-.495-.406-.902-.902-.902h-2.26zM12.568 10h14.866C28.847 10 30 11.155 30 12.566v14.867C30 28.845 28.847 30 27.434 30H12.568C11.157 30 10 28.845 10 27.433V12.566C10 11.155 11.157 10 12.568 10z" transform="translate(-620 -92) translate(492 92) translate(128)"/>
                </g>
            </g>
        </g>
    </g>
</svg>
