<svg width="40" height="40" viewBox="0 0 40 40" xmlns="http://www.w3.org/2000/svg" xmlns:xlink="http://www.w3.org/1999/xlink">
    <defs>
        <path id="a" d="M0 0h18v21H0z"/>
    </defs>
    <g fill="none" fill-rule="evenodd">
        <path d="M40 20c0 11.046-8.954 20-20 20C8.955 40 0 31.046 0 20S8.955 0 20 0c11.046 0 20 8.954 20 20" fill="#272E3A"/>
        <g transform="translate(11 10)">
            <mask id="b" fill="#fff">
                <use xlink:href="#a"/>
            </mask>
            <path d="M17.997 8.496a5.617 5.617 0 0 1-5.216-2.509v8.633c0 3.524-2.86 6.38-6.39 6.38S0 18.144 0 14.62s2.861-6.38 6.39-6.38c.134 0 .265.012.396.02v3.144c-.131-.016-.26-.04-.395-.04a3.259 3.259 0 0 0-3.262 3.257 3.259 3.259 0 0 0 3.262 3.256c1.801 0 3.393-1.417 3.393-3.216L9.815 0h3.013A5.608 5.608 0 0 0 18 5.002v3.494" fill="#FFF" mask="url(#b)"/>
        </g>
    </g>
</svg>
