<svg xmlns="http://www.w3.org/2000/svg" width="40" height="40" viewBox="0 0 40 40">
    <g fill="none" fill-rule="evenodd">
        <g>
            <g>
                <g>
                    <path fill="#272E3A" d="M40 20c0 11.046-8.954 20-20 20S0 31.046 0 20 8.954 0 20 0s20 8.954 20 20" transform="translate(-556 -92) translate(492 92) translate(64)"/>
                    <path fill="#FFF" d="M23.847 12c-2.267 0-4.103 1.809-4.103 4.04 0 .316.037.624.106.92-3.41-.169-6.434-1.777-8.457-4.22-.354.595-.555 1.29-.555 2.03 0 1.402.723 2.637 1.824 3.361-.672-.02-1.305-.202-1.858-.504v.05c0 1.958 1.415 3.59 3.29 3.961-.344.092-.705.142-1.08.142-.264 0-.521-.026-.773-.073.523 1.605 2.038 2.773 3.834 2.805-1.404 1.084-3.174 1.73-5.096 1.73-.331 0-.658-.02-.979-.057C11.817 27.331 13.973 28 16.29 28c7.548 0 11.675-6.154 11.675-11.492 0-.176-.004-.35-.012-.523.802-.57 1.498-1.281 2.047-2.091-.735.321-1.526.538-2.356.636.846-.5 1.499-1.292 1.804-2.235-.793.463-1.671.799-2.605.98-.748-.784-1.816-1.275-2.996-1.275" transform="translate(-556 -92) translate(492 92) translate(64)"/>
                </g>
            </g>
        </g>
    </g>
</svg>
