<svg xmlns="http://www.w3.org/2000/svg" width="40" height="40" viewBox="0 0 40 40">
    <g fill="none" fill-rule="evenodd">
        <g>
            <g>
                <g>
                    <path fill="#272E3A" d="M40 20c0 11.046-8.954 20-20 20S0 31.046 0 20 8.954 0 20 0s20 8.954 20 20" transform="translate(-684 -92) translate(492 92) translate(192)"/>
                    <path fill="#FFF" d="M17.937 22.582l-.002-5.593 5.404 2.807-5.402 2.786zM29.8 16.02s-.196-1.372-.796-1.976c-.76-.793-1.613-.797-2.004-.842C24.202 13 20.005 13 20.005 13h-.008s-4.2 0-6.998.202c-.39.045-1.242.05-2.004.842-.599.604-.794 1.976-.794 1.976S10 17.63 10 19.242v1.51c0 1.611.2 3.222.2 3.222s.196 1.372.795 1.976c.762.793 1.762.767 2.206.85 1.6.153 6.799.2 6.799.2s4.202-.007 7.001-.208c.391-.045 1.244-.05 2.004-.842.6-.604.796-1.976.796-1.976s.199-1.61.199-3.222v-1.51c0-1.611-.199-3.222-.199-3.222z" transform="translate(-684 -92) translate(492 92) translate(192)"/>
                </g>
            </g>
        </g>
    </g>
</svg>
